<?xml version="1.0" encoding="UTF-8"?>
<svg width="192px" height="41px" viewBox="0 0 192 41" version="1.1" xmlns="http://www.w3.org/2000/svg" xmlns:xlink="http://www.w3.org/1999/xlink">
    <title>Logo/E-liquids.com</title>
    <defs>
        <polygon id="path-1" points="0.123738892 -0.000935087719 23.3619079 -0.000935087719 23.3619079 29.8508772 0.123738892 29.8508772"></polygon>
        <polygon id="path-3" points="0.0597017544 0.259702632 14.7707895 0.259702632 14.7707895 9.32681667 0.0597017544 9.32681667"></polygon>
    </defs>
    <g id="Page-1" stroke="none" stroke-width="1" fill="none" fill-rule="evenodd">
        <g id="Header-Menu-Desktop" transform="translate(-236.000000, -47.000000)">
            <g id="Group-32" transform="translate(236.000000, 47.000000)">
                <polygon id="Fill-1" fill="#4A0074" points="44.2081421 0.359613158 39.849914 31.4448061 46.0171772 31.4448061 50.3757649 0.359613158"></polygon>
                <polygon id="Fill-2" fill="#4A0074" points="48.8952333 31.4448781 55.0628561 31.4448781 57.8591281 11.4616939 51.6911456 11.4616939"></polygon>
                <g id="Group-31" transform="translate(0.000000, 0.179465)">
                    <path d="M59.2158325,4.99099474 C59.3528588,4.00411754 59.1266395,3.16145965 58.5371746,2.46230175 C57.9477096,1.76314386 57.1597184,1.41356491 56.1732009,1.41356491 C55.6797623,1.41356491 55.1996307,1.50995088 54.7338851,1.70164386 C54.2674202,1.89369649 53.8498675,2.14724912 53.4797886,2.46230175 C53.1097096,2.77771404 52.8014904,3.15498596 52.5547711,3.5930386 C52.3080518,4.03181053 52.1436921,4.49755614 52.0613325,4.99099474 C52.0059465,5.48443333 52.0408325,5.95089825 52.1641921,6.38895088 C52.2871921,6.82772281 52.4860781,7.20499474 52.7604904,7.51968772 C53.0341833,7.8351 53.3772886,8.08901228 53.7883675,8.28034561 C54.1994465,8.47239825 54.6518851,8.56842456 55.1453237,8.56842456 C55.6387623,8.56842456 56.1178149,8.47239825 56.5842798,8.28034561 C57.0503851,8.08901228 57.4682974,7.8351 57.8383763,7.51968772 C58.2084553,7.20499474 58.5170342,6.82772281 58.7633939,6.38895088 C59.0104728,5.95089825 59.1608061,5.48443333 59.2158325,4.99099474" id="Fill-3" fill="#4A0074"></path>
                    <g id="Group-7" transform="translate(58.263158, 10.789474)">
                        <mask id="mask-2" fill="white">
                            <use xlink:href="#path-1"></use>
                        </mask>
                        <g id="Clip-6"></g>
                        <path d="M16.2897675,10.4842754 C16.0700219,11.9922842 15.460057,13.212214 14.4598728,14.1437053 C13.4589693,15.0759158 12.1778991,15.5420211 10.6155833,15.5420211 C9.05290789,15.5420211 7.90814474,15.0759158 7.18237281,14.1437053 C6.45552193,13.212214 6.20160965,11.9922842 6.42171491,10.4842754 C6.64074123,8.97698596 7.24387281,7.75705614 8.23075,6.82484561 C9.21762719,5.89299474 10.4922237,5.42652982 12.0548991,5.42652982 C13.6168553,5.42652982 14.7684518,5.89299474 15.5086096,6.82484561 C16.2487675,7.75705614 16.5087939,8.97698596 16.2897675,10.4842754 L16.2897675,10.4842754 Z M17.3176447,3.12405614 L17.2356447,3.12405614 C17.0435921,2.76800351 16.7691798,2.40475789 16.4131272,2.0343193 C16.0567149,1.6646 15.6319693,1.32904737 15.1385307,1.02730175 C14.6450921,0.725915789 14.0901535,0.479196491 13.4733553,0.286784211 C12.856557,0.0954508772 12.2052325,-0.000935087719 11.5201009,-0.000935087719 C10.0397851,-0.000935087719 8.66232895,0.252977193 7.38773246,0.759722807 C6.11313596,1.26754737 4.98239912,1.98001228 3.99552193,2.89783684 C3.00864474,3.81674035 2.19296053,4.90647719 1.5491886,6.16704737 C0.904697368,7.42797719 0.472758772,8.81262632 0.253732456,10.3195561 C0.0616798246,11.7178719 0.0825394737,13.0543281 0.315592105,14.3285649 C0.547925439,15.6035211 0.993890351,16.7342579 1.6516886,17.7211351 C2.30984649,18.7080123 3.15897807,19.4963632 4.20124123,20.0854684 C5.24242544,20.674214 6.47602193,20.969486 7.90167105,20.969486 C9.18993421,20.969486 10.4163377,20.7702404 11.5816009,20.3731877 C12.7465044,19.9761351 13.7538816,19.2974772 14.6040921,18.3379333 L14.6860921,18.3379333 L13.0414167,29.8510211 L19.2090395,29.8510211 L23.3619079,0.492503509 L17.6877237,0.492503509 L17.3176447,3.12405614 Z" id="Fill-5" fill="#4A0074" mask="url(#mask-2)"></path>
                    </g>
                    <path d="M97.9905035,11.2820491 L96.5921877,21.2324614 C96.5101877,21.8906193 96.3796351,22.5214439 96.2016088,23.1238561 C96.0228632,23.7273474 95.7700298,24.2689789 95.4409509,24.7480316 C95.1122316,25.2281632 94.680293,25.6115491 94.1458544,25.8996281 C93.6110561,26.1873474 92.9464246,26.331207 92.1516,26.331207 C91.3564158,26.331207 90.7669509,26.1668474 90.3835649,25.8377684 C89.9991,25.5090491 89.7394333,25.0843035 89.602407,24.5631719 C89.4646614,24.0427596 89.4236614,23.4734351 89.4790474,22.8569965 C89.5333544,22.2398386 89.602407,21.6439 89.684407,21.0681018 L91.0827228,11.2820491 L84.9151,11.2820491 L83.3524246,22.3016982 C83.1603719,23.6449877 83.0780123,24.8922509 83.1057053,26.0434877 C83.1323193,27.1947246 83.3524246,28.1956281 83.7635035,29.0451193 C84.1745825,29.8949702 84.8327404,30.5599614 85.7372579,31.0393737 C86.6417754,31.5184263 87.8753719,31.7590316 89.4380474,31.7590316 C90.1778456,31.7590316 90.8770035,31.662286 91.5348018,31.4709526 C92.1926,31.2789 92.7888982,31.0329 93.3233368,30.7307947 C93.8581351,30.4294088 94.3238807,30.0870228 94.721293,29.7029175 C95.1187053,29.3191719 95.4546175,28.935786 95.7290298,28.5516807 L95.8110298,28.5516807 L95.4409509,31.2652333 L101.362214,31.2652333 L104.157767,11.2820491 L97.9905035,11.2820491 Z" id="Fill-8" fill="#4A0074"></path>
                    <polygon id="Fill-10" fill="#4A0074" points="104.157946 31.2654132 110.325569 31.2654132 113.121841 11.2822289 106.953859 11.2822289"></polygon>
                    <path d="M114.478546,4.99099474 C114.615572,4.00411754 114.389353,3.16145965 113.799888,2.46230175 C113.210423,1.76314386 112.422432,1.41356491 111.435914,1.41356491 C110.942475,1.41356491 110.462344,1.50995088 109.996598,1.70164386 C109.530133,1.89369649 109.112581,2.14724912 108.742502,2.46230175 C108.372423,2.77771404 108.064204,3.15498596 107.817484,3.5930386 C107.570765,4.03181053 107.406405,4.49755614 107.324046,4.99099474 C107.26866,5.48443333 107.303546,5.95089825 107.426905,6.38895088 C107.549905,6.82772281 107.748791,7.20499474 108.023204,7.51968772 C108.296896,7.8351 108.640002,8.08901228 109.051081,8.28034561 C109.46216,8.47239825 109.914598,8.56842456 110.408037,8.56842456 C110.901475,8.56842456 111.380528,8.47239825 111.846993,8.28034561 C112.313098,8.08901228 112.731011,7.8351 113.101089,7.51968772 C113.471168,7.20499474 113.779747,6.82772281 114.026107,6.38895088 C114.273186,5.95089825 114.423519,5.48443333 114.478546,4.99099474" id="Fill-12" fill="#4A0074"></path>
                    <path d="M129.815603,21.2737491 C129.595857,22.7817579 128.985892,24.0016877 127.985708,24.9331789 C126.984804,25.8653895 125.703734,26.3314947 124.141418,26.3314947 C122.578743,26.3314947 121.43398,25.8653895 120.708208,24.9331789 C119.981357,24.0016877 119.727445,22.7817579 119.94755,21.2737491 C120.166576,19.7664596 120.769708,18.5465298 121.756585,17.6143193 C122.743462,16.6824684 124.018059,16.2160035 125.580734,16.2160035 C127.14269,16.2160035 128.294287,16.6824684 129.034445,17.6143193 C129.774603,18.5465298 130.034629,19.7664596 129.815603,21.2737491 L129.815603,21.2737491 Z M132.282436,0.18032807 L130.391401,13.4204509 L130.309041,13.4204509 C129.760576,12.460907 128.952445,11.7826088 127.883208,11.3848368 C126.813971,10.9877842 125.635041,10.7885386 124.346778,10.7885386 C122.921129,10.7885386 121.605532,11.0838105 120.399629,11.6725561 C119.193006,12.2623807 118.130962,13.0500123 117.212778,14.0368895 C116.294234,15.0237667 115.533576,16.1545035 114.930804,17.4294596 C114.327673,18.7036965 113.929901,20.0401526 113.738568,21.4384684 C113.518822,22.9461175 113.553348,24.3307667 113.841427,25.5909772 C114.129146,26.8522667 114.642725,27.9420035 115.383243,28.8601877 C116.123401,29.7787316 117.062085,30.4911965 118.199655,30.9983018 C119.336866,31.5050474 120.646348,31.7589596 122.126664,31.7589596 C122.811436,31.7589596 123.489734,31.6625737 124.161918,31.4712404 C124.833024,31.2788281 125.457015,31.0328281 126.032454,30.7307228 C126.608252,30.4296965 127.12255,30.0934246 127.574989,29.7237053 C128.026708,29.3532667 128.389954,28.9903807 128.664366,28.6339684 L128.746366,28.6339684 L128.417646,31.2655211 L134.09219,31.2655211 L138.450418,0.18032807 L132.282436,0.18032807 Z" id="Fill-14" fill="#4A0074"></path>
                    <path d="M153.725939,22.1577667 C153.328527,21.4043018 152.773229,20.8080035 152.060764,20.3692316 C151.34758,19.9311789 150.559589,19.6085737 149.696431,19.4028544 C148.832913,19.1974947 148.030896,19.0058018 147.290738,18.8270561 C146.550939,18.6493895 145.934141,18.4436702 145.440703,18.2102579 C144.947264,17.9779246 144.741904,17.6143193 144.823904,17.1208807 C144.906264,16.5181088 145.20729,16.0930035 145.728422,15.8462842 C146.248834,15.5995649 146.769966,15.4762053 147.290738,15.4762053 C148.798387,15.4762053 149.92265,16.0383368 150.662448,17.1618807 L154.939036,13.4204509 C154.143492,12.433214 153.102308,11.7484421 151.814045,11.3643368 C150.525422,10.9805912 149.223492,10.7885386 147.907536,10.7885386 C146.865632,10.7885386 145.824089,10.9190912 144.782904,11.1794772 C143.740641,11.4402228 142.78865,11.8441088 141.924773,12.392214 C141.061615,12.9410386 140.327931,13.6398368 139.725159,14.4893281 C139.122027,15.3391789 138.738282,16.3537491 138.573922,17.5319596 C138.381869,18.7932491 138.491922,19.8006263 138.902641,20.5540912 C139.31408,21.3086351 139.882685,21.8905474 140.609176,22.3016263 C141.335308,22.7127053 142.130852,23.0212842 142.99401,23.2270035 C143.857887,23.4323632 144.666018,23.6244158 145.419843,23.8024421 C146.173668,23.9811877 146.790466,24.200214 147.270597,24.4602404 C147.74965,24.7213456 147.948896,25.1119246 147.866536,25.6323368 C147.784176,26.1811614 147.441071,26.5573544 146.838659,26.7630737 C146.235527,26.9684333 145.577729,27.071293 144.864904,27.071293 C143.933054,27.071293 143.144343,26.8864333 142.500571,26.5163544 C141.856439,26.1462754 141.287834,25.6053632 140.794396,24.8921789 L136.476808,29.0450474 C137.325939,30.0596175 138.436176,30.7656088 139.807518,31.1626614 C141.177782,31.559714 142.562431,31.7589596 143.960387,31.7589596 C145.029264,31.7589596 146.125475,31.6561 147.249738,31.4503807 C148.373282,31.2450211 149.408352,30.8889684 150.354229,30.3815035 C151.300106,29.8743982 152.115071,29.2029333 152.800922,28.3667491 C153.485694,27.5305649 153.911159,26.4688807 154.075518,25.1798982 C154.239878,23.9193281 154.122992,22.9119509 153.725939,22.1577667" id="Fill-16" fill="#4A0074"></path>
                    <path d="M155.744758,28.024543 C155.513863,28.024543 155.289442,28.0673412 155.071135,28.1518588 C154.852828,28.2370956 154.658258,28.3554202 154.488504,28.5068325 C154.318389,28.658964 154.175968,28.8377096 154.060521,29.0441482 C153.945074,29.2505868 153.869547,29.4692535 153.833223,29.6994289 C153.796539,29.9303237 153.808407,30.1486307 153.869547,30.3550693 C153.929968,30.5615079 154.024196,30.7406132 154.151512,30.8923851 C154.279188,31.044157 154.439951,31.1624816 154.634161,31.2469991 C154.828372,31.3318763 155.040925,31.3746746 155.271819,31.3746746 C155.501995,31.3746746 155.723539,31.3318763 155.936091,31.2469991 C156.148284,31.1624816 156.342495,31.044157 156.518723,30.8923851 C156.694591,30.7406132 156.840249,30.5615079 156.955696,30.3550693 C157.071144,30.1486307 157.14667,29.9303237 157.183354,29.6994289 C157.243775,29.2383588 157.134442,28.8438237 156.855714,28.5161833 C156.576267,28.188543 156.205828,28.024543 155.744758,28.024543" id="Fill-18" fill="#4A0074"></path>
                    <path d="M163.974896,28.8802921 C163.731774,29.0140816 163.4588,29.0806167 163.155616,29.0806167 C162.463651,29.0806167 161.956905,28.8741781 161.635379,28.4613009 C161.313493,28.0487833 161.201282,27.50895 161.298747,26.8410816 C161.395493,26.1735728 161.662353,25.6333798 162.099686,25.2205026 C162.53666,24.8079851 163.100949,24.6015465 163.792914,24.6015465 C164.072002,24.6015465 164.323756,24.6652044 164.548537,24.7925202 C164.772958,24.9201956 164.940195,25.0813184 165.049168,25.2751693 L167.106721,23.3816167 C166.742396,22.944643 166.284204,22.6382219 165.732142,22.4619939 C165.179721,22.2864851 164.642046,22.1980114 164.120554,22.1980114 C163.440818,22.1980114 162.785177,22.3073447 162.154353,22.5260114 C161.523168,22.7443184 160.958519,23.0572132 160.460765,23.4636167 C159.963011,23.8703798 159.547256,24.3587833 159.213861,24.9291868 C158.879747,25.49995 158.664318,26.1372482 158.567572,26.8410816 C158.469747,27.5452746 158.509668,28.1825728 158.685537,28.7529763 C158.861405,29.3233798 159.140853,29.8117833 159.52316,30.2185465 C159.905826,30.6253096 160.382002,30.9378447 160.952765,31.1561518 C161.523168,31.3748184 162.147879,31.4837921 162.827975,31.4837921 C163.349826,31.4837921 163.908002,31.3956781 164.502861,31.2198096 C165.097361,31.0443009 165.644028,30.7375202 166.141423,30.3005465 L164.612195,28.4069939 C164.430212,28.5889763 164.21766,28.7468623 163.974896,28.8802921" id="Fill-20" fill="#4A0074"></path>
                    <path d="M173.660823,26.8410816 C173.563358,27.5085904 173.293621,28.0487833 172.850533,28.4613009 C172.407446,28.8741781 171.840279,29.0806167 171.148314,29.0806167 C170.456349,29.0806167 169.949244,28.8741781 169.627718,28.4613009 C169.306191,28.0487833 169.193621,27.5085904 169.291086,26.8410816 C169.387832,26.1735728 169.655051,25.6333798 170.092025,25.2205026 C170.528998,24.8079851 171.093288,24.6015465 171.785253,24.6015465 C172.477218,24.6015465 172.9872,24.8079851 173.31484,25.2205026 C173.642481,25.6333798 173.757928,26.1735728 173.660823,26.8410816 M175.4267,23.4636167 C175.038279,23.0572132 174.558867,22.7443184 173.988463,22.5256518 C173.4177,22.3073447 172.79263,22.1980114 172.112893,22.1980114 C171.433156,22.1980114 170.777516,22.3073447 170.146691,22.5256518 C169.515507,22.7443184 168.950858,23.0572132 168.453463,23.4636167 C167.955709,23.8703798 167.539595,24.3587833 167.2062,24.9291868 C166.872086,25.49995 166.656656,26.1372482 166.559911,26.8410816 C166.462446,27.5452746 166.502367,28.1822132 166.678235,28.7526167 C166.854104,29.3233798 167.133551,29.8117833 167.515858,30.2185465 C167.898165,30.6253096 168.37434,30.9378447 168.945104,31.1561518 C169.515507,31.3744588 170.140577,31.4837921 170.820674,31.4837921 C171.500051,31.4837921 172.155332,31.3744588 172.786516,31.1561518 C173.4177,30.9378447 173.982349,30.6253096 174.480104,30.2185465 C174.977498,29.8117833 175.396489,29.3233798 175.736358,28.7526167 C176.076226,28.1822132 176.294533,27.5452746 176.391998,26.8410816 C176.488744,26.1372482 176.449182,25.49995 176.273674,24.9291868 C176.097086,24.3587833 175.815121,23.8703798 175.4267,23.4636167" id="Fill-22" fill="#4A0074"></path>
                    <g id="Group-26" transform="translate(176.587719, 21.938596)">
                        <mask id="mask-4" fill="white">
                            <use xlink:href="#path-3"></use>
                        </mask>
                        <g id="Clip-25"></g>
                        <path d="M14.752807,2.59922018 C14.7161228,2.13203596 14.6006754,1.72527281 14.4068246,1.37929035 C14.212614,1.03330789 13.9270526,0.760334211 13.5508596,0.560009649 C13.1746667,0.359685088 12.6891404,0.259702632 12.0942807,0.259702632 C11.439,0.259702632 10.8714737,0.381264035 10.3920614,0.623667544 C9.91228947,0.866790351 9.4724386,1.27319386 9.07214912,1.84359737 C8.91426316,1.29729035 8.6107193,0.897000877 8.16187719,0.642009649 C7.71267544,0.387018421 7.17823684,0.259702632 6.55964035,0.259702632 C6.23164035,0.259702632 5.92198246,0.302141228 5.63102632,0.387018421 C5.33935088,0.471895614 5.07860526,0.581228947 4.84807018,0.714658772 C4.61717544,0.848448246 4.41073684,1.00022018 4.22875439,1.16997456 C4.04677193,1.3400886 3.90111404,1.50984298 3.7917807,1.67959737 L3.75545614,1.67959737 L3.91945614,0.478009649 L1.29761404,0.478009649 L0.0597017544,9.32681667 L2.79051754,9.32681667 L3.40947368,4.92075526 C3.44615789,4.62943947 3.50046491,4.35035175 3.57347368,4.08313246 C3.64612281,3.81627281 3.75545614,3.57638684 3.90111404,3.36383421 C4.04677193,3.15164123 4.23810526,2.98152719 4.47475439,2.85385175 C4.71140351,2.72653596 5.00523684,2.66287807 5.35769298,2.66287807 C5.67310526,2.66287807 5.904,2.73588684 6.04965789,2.88154474 C6.19531579,3.02684298 6.28918421,3.20307105 6.33198246,3.40950965 C6.3740614,3.61594825 6.38628947,3.83461491 6.36830702,4.06479035 C6.34996491,4.29568509 6.32874561,4.48989561 6.30464912,4.64742193 L5.64936842,9.32681667 L8.38018421,9.32681667 L9.03582456,4.64742193 C9.07214912,4.38056228 9.13257018,4.1259307 9.21744737,3.88280789 C9.30268421,3.64040439 9.42424561,3.42749211 9.58177193,3.24550965 C9.73965789,3.06352719 9.93063158,2.92110614 10.1554123,2.81752719 C10.3798333,2.71466754 10.6499298,2.66287807 10.9657018,2.66287807 C11.4145439,2.66287807 11.7058596,2.81177281 11.8392895,3.10884298 C11.9730789,3.40663246 12.0094035,3.76160614 11.9486228,4.17412368 L11.2386754,9.32681667 L13.9698509,9.32681667 L14.6981404,4.10147456 C14.7710026,3.56739561 14.7891316,3.06676404 14.752807,2.59922018" id="Fill-24" fill="#4A0074" mask="url(#mask-4)"></path>
                    </g>
                    <polygon id="Fill-27" fill="#4A0074" points="30.9654658 14.4881772 30.3206149 19.0398965 39.6517114 19.0398965 40.2965623 14.4881772"></polygon>
                    <path d="M6.94097632,15.6754509 C7.67861667,15.3406175 8.41337982,15.1345386 9.19202018,14.9565123 C10.8464061,14.5796 12.5148184,14.4745825 14.1591342,14.6414596 C15.2240553,14.7493544 16.2501342,15.0428281 17.2485202,15.3301877 C18.988143,15.8304596 20.5364325,16.4656 22.1232044,16.8119421 C21.6704061,16.9137228 21.2028623,16.9971614 20.7220114,17.0694509 C19.1366781,17.3078982 17.4794149,17.3503368 15.7333184,17.2154684 C14.7162307,17.1367053 13.6890728,16.9568807 12.6579588,16.7633895 C11.4445026,16.5353719 10.2839149,16.1839947 9.04564298,15.9984158 C8.32886228,15.8908807 7.65595877,15.7534947 6.94097632,15.6754509 L6.94097632,15.6754509 Z M17.8142482,19.4787404 C18.9223272,19.4715474 20.0016342,19.3996175 21.0492921,19.2424509 C24.7695026,18.6828368 27.7794061,17.4729772 29.7459675,13.7168018 C27.3755202,15.385214 25.1787833,15.2197754 22.6378623,14.6756263 C21.3280202,14.3951 20.0476693,13.9045386 18.659064,13.4632491 L19.4211605,8.0393807 L32.7885991,8.0393807 L33.6114763,2.1163193 L13.828257,2.1163193 L12.3939763,12.3709947 C11.1650553,12.3886175 9.93109912,12.5346351 8.70325702,12.8144421 C7.65416053,13.0536088 6.67483596,13.3456439 5.67932719,13.8426789 C3.55883596,14.9018456 1.75483596,16.2516088 0.000107894737,18.5173982 C2.31265175,17.6858895 4.25619561,17.6794158 6.34611667,17.8261526 C7.17079211,17.8844158 7.91562544,18.0505737 8.71944123,18.1710561 C9.6725114,18.3141965 10.5788272,18.5576789 11.4995289,18.7641175 L9.75630965,31.2363895 L30.2796868,31.2363895 L31.102564,25.3133281 L16.9935289,25.3133281 L17.8142482,19.4787404 Z" id="Fill-29" fill="#4A0074"></path>
                </g>
            </g>
        </g>
    </g>
</svg>