<svg id="Layer_1" data-name="Layer 1" xmlns="http://www.w3.org/2000/svg" viewBox="0 0 362 44"><defs><style>.cls-1{fill:#00b67a;}.cls-2{fill:#fff;}.cls-3{fill:#005128;}</style></defs><g id="Trustpilot_ratings_5star-RGB" data-name="Trustpilot ratings 5star-RGB"><rect id="Rectangle-path" class="cls-1" x="190.72" y="11.31" width="31.93" height="31.93"/><rect id="Rectangle-path-2" data-name="Rectangle-path" class="cls-1" x="225.31" y="11.31" width="31.93" height="31.93"/><rect id="Rectangle-path-3" data-name="Rectangle-path" class="cls-1" x="259.9" y="11.31" width="31.93" height="31.93"/><rect id="Rectangle-path-4" data-name="Rectangle-path" class="cls-1" x="294.49" y="11.31" width="31.93" height="31.93"/><rect id="Rectangle-path-5" data-name="Rectangle-path" class="cls-1" x="329.07" y="11.31" width="31.93" height="31.93"/><path id="Shape" class="cls-2" d="M206.69,32.83l4.85-1.23,2,6.25Zm11.17-8.08h-8.55l-2.62-8-2.63,8.05h-8.55l6.92,5-2.63,8.05,6.92-5L211,29.74l6.88-5Z"/><path id="Shape-2" data-name="Shape" class="cls-2" d="M241.27,32.83l4.86-1.23,2,6.25Zm11.18-8.08H243.9l-2.63-8-2.62,8.05H230.1l6.92,5-2.63,8.05,6.92-5,4.26-3.06,6.88-5Z"/><path id="Shape-3" data-name="Shape" class="cls-2" d="M275.86,32.83l4.86-1.23,2,6.25ZM287,24.75h-8.55l-2.63-8-2.63,8.05h-8.54l6.92,5L269,37.79l6.92-5,4.25-3.06,6.89-5Z"/><path id="Shape-4" data-name="Shape" class="cls-2" d="M310.45,32.83l4.85-1.23,2,6.25Zm11.17-8.08h-8.54l-2.63-8-2.63,8.05h-8.54l6.91,5-2.62,8.05,6.91-5,4.26-3.06,6.88-5Z"/><path id="Shape-5" data-name="Shape" class="cls-2" d="M345,32.83l4.85-1.23,2,6.25Zm11.17-8.08h-8.55l-2.62-8-2.63,8.05h-8.55l6.92,5-2.63,8.05,6.92-5,4.26-3.06,6.88-5Z"/></g><g id="Type"><path class="cls-2" d="M45.43,15.47H62.54v3.2H55.81V36.62h-3.7V18.67h-6.7v-3.2Zm16.38,5.84H65v3H65a3.36,3.36,0,0,1,.58-1.21,5.2,5.2,0,0,1,1-1.07A5.44,5.44,0,0,1,68,21.19a4,4,0,0,1,1.51-.3c.39,0,.67,0,.82,0l.46.06v3.25l-.73-.1a6.11,6.11,0,0,0-.73-.05,3.82,3.82,0,0,0-1.61.35,3.65,3.65,0,0,0-1.32,1,4.93,4.93,0,0,0-.89,1.64,6.79,6.79,0,0,0-.33,2.25V36.6H61.8V21.31ZM86.29,36.62H83V34.49h-.06a4.64,4.64,0,0,1-1.85,1.85,5.06,5.06,0,0,1-2.5.7q-3,0-4.38-1.5A6.61,6.61,0,0,1,72.84,31V21.31h3.37v9.38A4.16,4.16,0,0,0,77,33.55a2.82,2.82,0,0,0,2.16.83,4.07,4.07,0,0,0,1.78-.33,2.93,2.93,0,0,0,1.15-.88,3.42,3.42,0,0,0,.64-1.31,6.69,6.69,0,0,0,.19-1.66V21.32h3.38ZM92,31.71a2.61,2.61,0,0,0,1.12,2.07,4.5,4.5,0,0,0,2.34.6c.32,0,.68,0,1.08-.07A4.46,4.46,0,0,0,97.7,34a2.12,2.12,0,0,0,.88-.61,1.48,1.48,0,0,0,.32-1,1.45,1.45,0,0,0-.48-1.06,3.1,3.1,0,0,0-1.14-.67,10.44,10.44,0,0,0-1.58-.44l-1.8-.39a16.71,16.71,0,0,1-1.82-.5,5.69,5.69,0,0,1-1.57-.81,3.62,3.62,0,0,1-1.11-1.28A4.07,4.07,0,0,1,89,25.28a3.52,3.52,0,0,1,.61-2.09,4.48,4.48,0,0,1,1.54-1.36,7.15,7.15,0,0,1,2.07-.73,12.07,12.07,0,0,1,2.18-.21,10.46,10.46,0,0,1,2.27.25,6.16,6.16,0,0,1,2,.82,4.83,4.83,0,0,1,2.18,3.65H98.27A2.08,2.08,0,0,0,97.16,24a4.54,4.54,0,0,0-2-.42,7.32,7.32,0,0,0-.86.06,4.77,4.77,0,0,0-.92.23,2,2,0,0,0-.73.47,1.13,1.13,0,0,0-.3.82,1.28,1.28,0,0,0,.43,1,3.43,3.43,0,0,0,1.12.64,10.79,10.79,0,0,0,1.58.44l1.84.39a18.43,18.43,0,0,1,1.8.5,5.81,5.81,0,0,1,1.59.81,4,4,0,0,1,1.12,1.27,3.88,3.88,0,0,1,.43,1.89,4.15,4.15,0,0,1-.63,2.32A5,5,0,0,1,100,35.93a7.55,7.55,0,0,1-2.21.87,11,11,0,0,1-2.4.27,10.38,10.38,0,0,1-2.69-.33,6.54,6.54,0,0,1-2.13-1,4.79,4.79,0,0,1-1.42-1.65,5.51,5.51,0,0,1-.55-2.36H92Zm11.13-10.4h2.56v-4.6h3.37v4.6h3v2.52h-3V32a8.31,8.31,0,0,0,0,.92,1.77,1.77,0,0,0,.21.66,1,1,0,0,0,.49.4,2.42,2.42,0,0,0,.9.14c.24,0,.48,0,.72,0a3.47,3.47,0,0,0,.71-.1v2.61c-.37,0-.74.07-1.09.12a9.56,9.56,0,0,1-1.09.06,7.36,7.36,0,0,1-2.15-.26,2.69,2.69,0,0,1-1.26-.74,2.54,2.54,0,0,1-.63-1.23,9.05,9.05,0,0,1-.19-1.68v-9h-2.56V21.31Zm11.36,0h3.19v2.07h.06a4.22,4.22,0,0,1,2-1.91,6.5,6.5,0,0,1,2.76-.58,7.2,7.2,0,0,1,3.15.64,6.22,6.22,0,0,1,2.24,1.75,7.55,7.55,0,0,1,1.32,2.59,11.35,11.35,0,0,1,.05,6.15,8,8,0,0,1-1.21,2.57A5.92,5.92,0,0,1,126,36.37a6.17,6.17,0,0,1-2.94.67,8.32,8.32,0,0,1-1.48-.14,6.59,6.59,0,0,1-1.41-.43,5.22,5.22,0,0,1-1.26-.76,4.53,4.53,0,0,1-1-1.08h-.06v7.65h-3.37ZM126.31,29a7.62,7.62,0,0,0-.27-2,5.72,5.72,0,0,0-.8-1.73A4.26,4.26,0,0,0,123.91,24a3.83,3.83,0,0,0-1.84-.46A3.71,3.71,0,0,0,118.86,25,6.59,6.59,0,0,0,117.79,29a7.77,7.77,0,0,0,.28,2.15,4.94,4.94,0,0,0,.85,1.7A4,4,0,0,0,120.27,34a3.79,3.79,0,0,0,1.82.42,3.83,3.83,0,0,0,2-.48,4.06,4.06,0,0,0,1.31-1.23A4.9,4.9,0,0,0,126.1,31,9.21,9.21,0,0,0,126.31,29Zm5.95-13.51h3.38v3.2h-3.38Zm0,5.84h3.38V36.62h-3.38Zm6.39-5.84H142V36.62h-3.37ZM152.37,37a8.36,8.36,0,0,1-3.27-.61,6.91,6.91,0,0,1-3.94-4.23,9.63,9.63,0,0,1-.52-3.25,9.5,9.5,0,0,1,.52-3.22,7.21,7.21,0,0,1,1.51-2.56,6.93,6.93,0,0,1,2.43-1.67,9,9,0,0,1,6.53,0,6.78,6.78,0,0,1,3.94,4.23A9.5,9.5,0,0,1,160.1,29a9.63,9.63,0,0,1-.53,3.25,7.2,7.2,0,0,1-1.5,2.55,7,7,0,0,1-2.44,1.68A8.35,8.35,0,0,1,152.37,37Zm0-2.67a3.94,3.94,0,0,0,1.95-.48,4.26,4.26,0,0,0,1.36-1.24,5.58,5.58,0,0,0,.79-1.73,8.12,8.12,0,0,0,.25-2,8.23,8.23,0,0,0-.25-2,5.07,5.07,0,0,0-.79-1.73A4.2,4.2,0,0,0,154.32,24a4.22,4.22,0,0,0-3.91,0,4.31,4.31,0,0,0-1.36,1.22,5.47,5.47,0,0,0-.79,1.73,8.23,8.23,0,0,0-.25,2,8.12,8.12,0,0,0,.25,2,5.36,5.36,0,0,0,.79,1.73,4.26,4.26,0,0,0,1.36,1.24A3.75,3.75,0,0,0,152.37,34.37Zm8.71-13.06h2.55v-4.6H167v4.6h3v2.52h-3V32a8.31,8.31,0,0,0,0,.92,1.61,1.61,0,0,0,.21.66.94.94,0,0,0,.49.4,2.42,2.42,0,0,0,.9.14c.24,0,.47,0,.71,0a3.57,3.57,0,0,0,.72-.1v2.61c-.37,0-.75.07-1.09.12a9.82,9.82,0,0,1-1.09.06,7.36,7.36,0,0,1-2.15-.26,2.73,2.73,0,0,1-1.27-.74,2.61,2.61,0,0,1-.62-1.23,9,9,0,0,1-.2-1.68v-9h-2.55V21.31Z"/></g><g id="Star"><polygon class="cls-1" points="41.49 15.47 26.03 15.47 21.25 0.76 16.46 15.47 1 15.46 13.52 24.56 8.73 39.26 21.25 30.17 33.76 39.26 28.98 24.56 41.49 15.47 41.49 15.47 41.49 15.47"/><polygon class="cls-3" points="30.05 27.89 28.98 24.56 21.25 30.17 30.05 27.89"/></g></svg>